<?xml version="1.0" encoding="utf-8"?>
<!-- Generator: Adobe Illustrator 23.0.1, SVG Export Plug-In . SVG Version: 6.00 Build 0)  -->
<svg version="1.1" id="Layer_1" xmlns="http://www.w3.org/2000/svg" xmlns:xlink="http://www.w3.org/1999/xlink" x="0px" y="0px"
	 viewBox="0 0 1000 511.5" style="enable-background:new 0 0 1000 511.5;" xml:space="preserve">
<style type="text/css">
	.st0{fill:#EA2024;}
	.st1{fill:#05A64F;}
	.st2{fill:#FFFAFF;}
	.st3{fill:none;stroke:#000000;stroke-miterlimit:10;}
	.st4{fill:#FFFFFF;}
</style>
<path d="M544.9,161.8c-29-38.9-87.9,14.1-94.3,103.3c1.8,105.1,27,184.3,102.4,154.7l136.3-51l-97.7,31.3c-41.1,15.4-35.1,3-4.7-7.3
	l160.3-59.1L571,389.3c11.7-18.2,18.9-38.4,18.9-61.7c6.4,4.3,13.8,4.4,21.4,3c11.2,0.2,22.6-1.4,34.3-4.3c5.1,0.7,9.5-0.1,12.9-3.9
	c8.6,0.3,15-0.9,20.1-3c9.4,0.4,16-1.1,19.7-4.7c16,8.5,31.8,10.9,47.6,8.1c11.7,9.5,28.2,12.6,48.4,10.7
	c17.1,1.7,32.5,0.8,45.9-3.4c14.1,1.6,26-1.3,36-8.1c14.8,1.6,27-1.7,35.1-12.9c14.8-2.3,26.5-7.3,33.9-15.9
	c21-5.2,30.8-18.9,35.1-36.9c-23.8,17.1-59.2,18.1-105.4,4.3c-44.4-16.2-111.1-46.9-181.7-80.1c6-6.7,11-12.7,15-18
	c-13.8,2.7-27.5,4.2-41.1,0c-84.4-45.9-125.6-29.6-71.6,36.4c4.2,10.6,1.5,20.4-7.3,29.6C578.9,185.1,564.4,163.2,544.9,161.8z"/>
<path d="M19.7,259.3c26.8,20.1,69.4,20.2,133.1-6.4l153-70.7c-6.7-3.4-11.5-9.2-14.8-16.7c13,5.3,25.6,7.2,37.5,2.4
	c0.7-0.3,1.4-0.6,2-1c71.6-40.8,130.8-37.7,72.6,36.5c-1.6,2.1-2.8,4.6-2.9,7.2c-0.2,2.5,0.3,5.2,1.7,8c0.4,0.9,1,1.7,1.5,2.5
	c7.7,10.7,14.1,21.8,19.3,33.2c8.9,17.6,18.7,28.2,29.6,31.5l1.3,33.4c-4.2,3.6-8.9,6.8-14.2,9.6c-1.6,0.9-3.3,1.5-5.1,1.9
	c-6.2,1.4-12.4,2.4-18.4,2.2c-2.2-0.1-4.5,0.3-6.6,0.9c-5.6,1.7-11.1,1.9-16.6,0.4c-2.1-0.6-4.3-0.6-6.4-0.2c-7,1.3-14,1.7-21,0.7
	c-0.8-0.1-1.5-0.3-2.3-0.5c-2.7-0.8-5-1.7-7-2.7c-1.9-0.9-4-1.4-6.2-1.6c-3.4-0.3-6.8-1.3-10.1-3.2c-7.3,0.7-14.2,0.1-19.9-4.5
	c-8.1,0.1-15.2-1.2-20.6-5.1c-12.9,8.5-27.8,9.9-43.1,9.6c-17,9.8-34.6,12.9-52.7,9.6c-16.8,2.4-32.4,2.8-44.4-3.2
	c-13.7,1.1-26.5,0.7-35.4-5.8c-13.4-0.9-26.1-3.5-35.4-14.8c-11.9-2.4-23.3-6.8-33.8-14.9c-1-0.8-2.2-1.4-3.4-1.7
	C27.5,288.7,20.6,275.1,19.7,259.3z"/>
<path class="st0" d="M34.5,276c21.9,3.9,45.7,3.4,71.4-1.3c66.1-23.2,136.6-54.3,210.2-90.6c-4.9-2-7.8-5.2-9.6-9l19.1-1.3
	c67.3-42,136.3-43.3,70.3,28.3v17.6c16,19.1,24.4,33.1,18.9,37.7c-6.2,0.3-11.1-3.2-15-9.9l-9.4-2.6l-9-14.1l-3.9-17.1l0.9-16.3
	c4.4-23-4.9-26.2-18.4-23.6l3,2.1c3.7,0.8,3,2.4-0.4,4.3l-105.8,53l-113.5,48.5C85.9,304,53.6,297.5,34.5,276z"/>
<path class="st0" d="M74.6,299.4c15.5,12.5,44.2,10.5,87.1-7.1l105.1-47.9l-16.4-4.2l-109.3,47.9C116.5,299.5,96.2,297.7,74.6,299.4
	z"/>
<path class="st0" d="M310.3,221.7l-34.7,19.6c-16.1,1.6-20.7-2.3-13.5-7.1l32.8-15.4L310.3,221.7z"/>
<path class="st0" d="M328.9,208.8l-14.1,7.4c-10.1,6.4-13.5,2.1-12.2-1.9l16.5-9.2L328.9,208.8z"/>
<path class="st0" d="M335.3,205.5c-9,3.2-13.4-0.1-9.4-4.3l42.9-22.5l4.1,4.9C358.2,193.4,343.8,202.9,335.3,205.5z"/>
<path class="st0" d="M376.3,198l-29.1,19.1c-12,2.8-21.5-1-14.8-7.7l41.1-24.6l3.6-0.2l0.6,13.7L376.3,198z"/>
<path class="st0" d="M98.1,312.6c19.7-1.8,38.1-6.4,55.7-12.9l108.9-48.6l14.8,5.4l-81,36.9l-61.3,24.9
	C120.5,323.5,108.2,321.6,98.1,312.6z"/>
<path class="st1" d="M130,324c8.4,6.7,19,8.6,33.2,2.8c28.6-9.9,76.3-34.4,125.4-60l-12.2-5.6l-67.5,31.1
	C181.2,304,154.8,314.7,130,324z"/>
<path class="st1" d="M170.5,328.5c7.1,6.7,18.2,7.9,35.6,0.4l97.3-56.8l-13.5-3.6l-85.9,46C193.2,320.4,182.1,325.1,170.5,328.5z"/>
<path class="st1" d="M211.3,332.8l99.4-60.6l11.6-0.6v2.8l-63.6,44.4C241.8,329.1,225.8,335.2,211.3,332.8z"/>
<path class="st1" d="M261.4,321.4l65.8-46.5l13.9-0.4l-2.4,3.6l-3.9,3l-39.2,33.2C283.1,321.2,271.5,324.3,261.4,321.4z"/>
<path class="st1" d="M340.5,283.3l-2.8,0.2L307,313c-2,5.7,4.3,5.8,16.1,2.1c8.1-2.8,15.3-7.9,21.6-15.2c-6.7,3.9-13.1,6.9-18,6.6
	C329.5,298.9,334.1,291.1,340.5,283.3z"/>
<path class="st2" d="M355.9,284.5l-11.1,15.4c-6,4.7-12,7.1-18,6.6c2.2-7.8,6.9-15.3,13.1-22.5L355.9,284.5z"/>
<path class="st3" d="M324.4,319.5c9.2-6.4,17.9-13.3,25.9-20.8l1.1,13.3C341.3,319.4,331.8,323.8,324.4,319.5z"/>
<path class="st2" d="M357.6,290.1H372v3.6c-6.9,7.4-13.8,13.8-20.6,18.2l-0.9-13.9L357.6,290.1z"/>
<path class="st2" d="M386.1,294c-15.1,22.2-29.3,34.6-41.8,28.7l31.7-30L386.1,294z"/>
<path class="st2" d="M360,325.5c13.5,4.5,26.9-4.8,40.1-31.1h-10.7C381.7,307.7,372.3,318.6,360,325.5z"/>
<path class="st2" d="M375,330.2c11.7-6.7,20.8-19.9,29.1-35.4h8.8l0.9,3.2C400.2,320.3,387.3,331.1,375,330.2z"/>
<path class="st2" d="M417.4,297.4H432c-11.2,21.3-23.1,36.2-37.5,30.6L417.4,297.4z"/>
<path class="st2" d="M414.6,328.5c12.1,5.4,23.2-5.9,33.2-34.7l-9.6,2.8l-3.4,1.9C429.2,309.6,423,320,414.6,328.5z"/>
<path class="st2" d="M436,325.5c6.6-2.1,12.3-5.8,16.9-11.4l-1.7-19.9C447.5,305.7,442.8,316.4,436,325.5z"/>
<path class="st0" d="M317.8,232.9c-18.8,17.9-35.7,25.5-49.3,15.4l33.9-18C306.2,232.7,311.6,233.2,317.8,232.9z"/>
<path class="st0" d="M336.6,219.6c-11.4,10.9-22.4,15.7-32.6,9c11.8-11.4,21.4-17.6,25.3-9.9L336.6,219.6z"/>
<path class="st0" d="M281.8,258.2c14.2,5.1,28.7,6.9,44.6-11.1l-11.1-4.7C307.2,248,294.7,253.1,281.8,258.2z"/>
<path class="st0" d="M346,231.2l-8.6-1.3c-1.4-3-4.7-2.6-9-0.4l-12.4,8.6C326,247.7,336,245.5,346,231.2z"/>
<path class="st0" d="M373.5,214.9c-11.4,12.4-23.4,16.7-36,10.3l34.3-21.4C375.2,205.5,375,209.8,373.5,214.9z"/>
<path class="st1" d="M297.2,266.8c17.7,5.4,32.9,1.9,45.4-11.1l1.7-3.9l-15.4-0.4C321,256.6,310.4,261.7,297.2,266.8z"/>
<path class="st0" d="M357.6,240.2c-6.4,8.1-14.5,12.2-26.6,7.3l12-8.6L357.6,240.2z"/>
<path class="st0" d="M349,235c8.2,6.2,18,3.5,29.1-6l-1.3-12.4L349,235z"/>
<path class="st1" d="M328.9,271.9c15.7,3.2,25-2.2,30-13.3l-13.7-1.7C342.3,262.1,336.4,267,328.9,271.9z"/>
<path class="st0" d="M366.6,250c-7,6-13.6,7.9-19.3,2.1l9.9-7.3l1.7,3.4L366.6,250z"/>
<path class="st0" d="M378.2,229c9,10.2,7.5,16.5-4.7,18.9c-10.2-0.5-13.2-2.7-8.1-6.9C370.7,238.2,375,234.2,378.2,229z"/>
<path class="st1" d="M340.5,278.8l18.9-13.7c0,0,6.4,1.3,12,2.1c5.6,0.9,5.6,0.9,5.6,0.9l-18.4,12.4l-3.4,0.4V274l-9.4,6
	L340.5,278.8z"/>
<path class="st0" d="M362.3,261.6c0,0,6-14.6,7.7-11.1c1.7,3.4,1.7,3.4,1.7,3.4l5.1,3.4C375.1,261.3,370,262.5,362.3,261.6z"/>
<polygon class="st1" points="359.8,286.5 377.8,285.6 393.2,272.8 388.5,271.5 387.6,268.9 379,269.3 "/>
<path class="st1" d="M378.2,265.5c9.9,2.9,18.2-1.6,24.9-13.7l-6-2.6c-1.2,3-4.2,5-8.1,6.4C382.5,257,379,260.4,378.2,265.5z"/>
<path class="st1" d="M394,268.5c7.2,1.7,13.1,0,15.9-9.9l-6.4-3.9L394,268.5z"/>
<path class="st1" d="M381.2,289c10.4-0.9,19.1-5.4,25.7-14.1l-4.3-0.4l-1.3-2.1l-3.9-0.4C395.2,271.4,373.9,294.6,381.2,289z"/>
<path class="st1" d="M399.2,290.3c12.7,2.8,21.7-4.8,29.1-16.7l-3-5.6l-8.6,5.1l-4.3,0.9L399.2,290.3z"/>
<path class="st1" d="M405.2,272.3c9.8,1,16.9-1.4,15.9-13.7C415.2,255.7,409.7,258.1,405.2,272.3z"/>
<path class="st1" d="M436.5,280.5c-4,9.7-10.3,12.4-17.6,12l11.1-16.7L436.5,280.5z"/>
<path class="st2" d="M433.5,294.2c6.6,1.7,10.9,0,12.9-5.1l-9-6L433.5,294.2z"/>
<path class="st2" d="M478.9,219.2c-17.2,96.5-1.5,157.6,33.4,198C466.7,379.3,455.1,313.6,478.9,219.2z"/>
<path class="st2" d="M487.5,176.8c-27.6,59.4-32.7,126.2-13.7,201C447.4,295.3,450.5,227.5,487.5,176.8z"/>
<path class="st4" d="M556.9,201.2c12.2,7.8,26.1,38.6,12.4,41.6c-9.8-6.5-13.1-13.1-2.1-20.1C565.5,216.3,561.7,209,556.9,201.2z"/>
<path class="st4" d="M553.9,267.2c1.1-12.5-0.5-26.1-8.1-42c-5.9-14.7,1.1-25.1,14.1-33.4c-17.5,4.4-26.6,19-25.3,46.3
	c2.3,5.7,2,11.9-2.1,18.9l-0.4,19.7c7-0.6,11.6,1,15,3.9l0.9-27.4c-0.7-5.8-2.8-11.1-7.3-15.4v-7.3l3.9,0.4v7.3
	C549,243.3,552.5,251.9,553.9,267.2z"/>
<path class="st4" d="M544,311.3c1.7,34.3-0.4,55.3-12.9,39c-1.3-9-0.4-17.2,3.9-24l-0.9-12.9L544,311.3z"/>
<path class="st4" d="M559,373c1.3-10.1,5.2-18.4,11.6-24.9C570.5,360.2,566.8,368.6,559,373z"/>
<path class="st4" d="M539.3,371.8c7.6-3.9,8.1-13.6,7.3-24.4C540.8,356.4,536.4,365.1,539.3,371.8z"/>
<path class="st4" d="M560.3,174.6c-51.4-9.9-67.7,112.7-36,203.6l2.1-2.1C499.9,277.9,511.6,182.4,560.3,174.6z"/>
<path class="st4" d="M550,391.5c-32.5-18.4-37.9-76.3-25.3-160.3C515.2,316.5,525.3,366.9,550,391.5z"/>
<path d="M449.3,351.2c4.3,30.8,14.4,56.7,37.7,71.6C470,405.4,457.6,381.3,449.3,351.2z"/>
<path class="st0" d="M963.2,271.9c-28.6,5.1-55.7,4.7-80.6-4.3c-45.4-16.5-88.1-32.7-117.4-47.6l-81-39.9c4.8-2.7,8.6-5.6,8.1-9
	c-8.7,0.5-16.8-0.2-24-3c-86.1-45.4-116.6-31.9-67.3,30.4c3.8,12.3,2.3,23.3-8.6,32.1c-12,15.4-12.9,23.3-0.9,22.3
	c3.7-8.3,9.1-12.5,16.7-11.1c6.6-8.3,10.7-17,11.6-26.1c-3.1-32.1,0.7-51.8,18.9-45.4l-4.3,4.7c56.5,30.8,109.4,57.9,150,72
	l70.3,31.3C922.9,300.3,950.1,291.4,963.2,271.9z"/>
<path class="st0" d="M732.2,242.3l5.1-3.9c3.4,0.7,6.2,0,8.6-2.1l82.7,36.4c29.9,15.5,62.1,23.8,96.9,23.6
	c-18.6,7.8-40.7,11.5-79.3-3.4L732.2,242.3z"/>
<path class="st1" d="M898.9,310c-15.2,12-35.5,7.6-58.7-6l-116.1-48l11.6-9l112.7,50.1C865.3,303.8,882.1,308.3,898.9,310z"/>
<path class="st1" d="M868.5,321.2c-15.9,8.4-35.3,3.9-56.1-6l-103.7-51.9l13.3-6.4l80.1,36C823.2,304,845.4,313.3,868.5,321.2z"/>
<path class="st1" d="M829.9,326.3c-15.2,3.7-29.7,3.9-42.4-3.9L693.6,268l13.7-2.6L811,318.6L829.9,326.3z"/>
<path class="st1" d="M676.9,270.6l8.6-1.7l102.9,60c-14.7,1.8-29.9-0.6-46.3-13.3L676.9,270.6z"/>
<path class="st1" d="M663.6,279.2l-0.4-3.9l-3-3l12.4-0.4l65.1,47.1c-15.9-1.5-31-4.9-43.3-14.6L663.6,279.2z"/>
<path class="st1" d="M694,312.6l-34.7-33c6.1,9.1,11.3,18,13.3,25.7l-19.7-10.7C667.1,308.2,681.1,318.1,694,312.6z"/>
<path class="st4" d="M641.8,280.5l17.6-0.9c5.7,8.6,10.5,17.2,13.3,25.7L653,294.6l-6.4-7.3L641.8,280.5z"/>
<path class="st1" d="M673,318.2c-5.2-4.4-13.6-12.3-23.1-21.4l-2.6,12C654.8,315.6,663.7,317.5,673,318.2z"/>
<path class="st4" d="M627.2,287.8h15l7.7,9l-2.6,12C639.3,303.4,632.7,296.3,627.2,287.8z"/>
<path class="st4" d="M656.8,321.2c-13.1-10.3-25.1-20.7-32.6-31.3h-9.4C624.8,310.2,638.6,321.1,656.8,321.2z"/>
<path class="st4" d="M599.3,290.8l10.3,0.9c6.8,12.7,16.9,23.1,30,31.3C626,321.8,612.4,319.6,599.3,290.8z"/>
<path class="st4" d="M622.9,325.9c-12.2-9.8-23.3-20.3-28.3-34.7l-10.3,1.7C599.8,319.1,611.7,324.7,622.9,325.9z"/>
<path class="st4" d="M604.5,326.8c-15.4-1.9-28.5-11.2-37.7-32.6l12.9,0.4L604.5,326.8z"/>
<path class="st4" d="M584.3,326.3c-16.5-0.5-27.5-12.1-32.1-36.9l6,4.3l5.1,1.3C569.2,305.8,575.7,316.4,584.3,326.3z"/>
<polygon class="st4" points="566.3,291.6 560.3,280.5 553.5,286 559.5,291.2 "/>
<path class="st1" d="M579.6,287.8l-10.7-15l-5.6,5.6C568.1,286,573.6,289.2,579.6,287.8z"/>
<path class="st1" d="M600.6,289c-5.7-11-13.4-20.2-26.1-24.9l-2.6,6.9C575,281.4,583.5,288.2,600.6,289z"/>
<path class="st1" d="M619.9,286c-11.8-0.2-21.3-4.7-28.7-13.3l6.4-1.3v-3.9C605.9,273,613.5,279,619.9,286z"/>
<path class="st1" d="M638.3,282.6l-13.3,1.3c-16.2-10.1-24.6-16.6-13.7-14.6l1.7-3l6.9-0.4L638.3,282.6z"/>
<polygon class="st1" points="643,277 644.3,270.2 654.2,276.2 658.5,275.8 637.5,260.3 625,260.3 625.9,265.9 "/>
<polygon class="st1" points="652.5,254.3 641.3,253.9 642.2,259.9 655.5,268.5 671.3,268.9 "/>
<path class="st1" d="M700,262.5c-18.3,4.3-34,2.3-44.6-13.3h15C679,255.7,688.8,260.1,700,262.5z"/>
<path class="st0" d="M717.2,254.8c-16.3,8.2-32,3.6-47.1-12.4C682.4,240.5,698.1,244.6,717.2,254.8z"/>
<path class="st0" d="M729.6,244.5c-14,7.2-29.6,5.2-48-14.1C693.4,227.4,709.5,232.3,729.6,244.5z"/>
<path class="st0" d="M739.9,233.8c-10.5,7.9-26.8,3.4-50.6-17.1h12.9C715.6,219.2,728.1,225.1,739.9,233.8z"/>
<polygon class="st1" points="594.6,270.6 586.9,269.8 576.2,264.6 579.6,253 586,254.3 "/>
<path class="st1" d="M606.2,265.5l-9.9,0.4l-7.7-10.7c0,0,3,0.9,5.6-1.3c2.6-2.1,2.6-2.1,2.6-2.1L606.2,265.5z"/>
<path class="st1" d="M622.9,263.3l-15.9-0.9c-8.9-8.9-13.7-15.9-4.3-16.3c2.1,3.1,4.6,4.9,7.3,6L622.9,263.3z"/>
<path class="st0" d="M638.3,258.6c-9.9,1-17.6-0.1-18-7.7h7.3v-5.1L638.3,258.6z"/>
<path class="st0" d="M649.9,252.6c-12.5-1.8-17.8-4.1-11.6-7.3C642.8,239.8,646.5,243.8,649.9,252.6z"/>
<path class="st0" d="M667.9,244.9c-10,3-18,0.8-24-7.3C652.3,234,660.3,237.1,667.9,244.9z"/>
<path class="st0" d="M683.3,235.5c-12,5.7-22.5,2.7-31.7-8.6h7.3C666.7,222.9,674.9,227.4,683.3,235.5z"/>
<path class="st0" d="M691.9,223.9c-8.8,6.4-18.7,1.7-29.1-7.7l7.7-1.3C677.7,211.4,684.9,215.8,691.9,223.9z"/>
<path class="st0" d="M697.5,213.2c-8.6,4.2-17,1.4-25.3-7.3C679.9,203.2,687.9,203,697.5,213.2z"/>
<polygon class="st0" points="673.9,202.5 663.2,202 622.5,178.5 631,175.9 675.6,199.5 "/>
<path class="st0" d="M670.5,209.8c-13.3,9.7-30.4-0.6-48.4-15.9l2.1-12C640.9,194.8,657,205.9,670.5,209.8z"/>
<path class="st0" d="M661,219.6c-12.7,6.5-25.2,4.2-37.3-9.9v-10.3L661,219.6z"/>
<path class="st0" d="M648.2,232.9c-7.7,2.9-16.8,1.9-28.7-7.3l3.4-12.4C633.5,219.7,643.2,226.3,648.2,232.9z"/>
<path class="st0" d="M636.2,240.2c-7.5,5.3-15.1,4.5-22.7-2.1l5.6-10.7L636.2,240.2z"/>
<path class="st0" d="M617.3,251.3c-8.3,0.9-11.4-2.1-9-9.4C615.8,241.7,618.6,244.9,617.3,251.3z"/>
<path class="st0" d="M392.5,249.6c-3.3,7.6-8.7,6.9-15,2.6C382,245.6,387,244.8,392.5,249.6z"/>
<polygon class="st2" points="345.6,280 354.2,274.5 355,280.9 "/>
<g>
	<path d="M413.6,55.4c-2.4,4.4-6.2,7.9-11.2,10.6c-5,2.7-11.3,4-18.7,4h-13.8v32.7h-22.2V11.5h36c7.3,0,13.4,1.3,18.5,3.8
		c5,2.5,8.8,6,11.3,10.4s3.8,9.5,3.8,15.2C417.2,46.2,416,51,413.6,55.4z M391.5,49.3c2.1-2,3.1-4.8,3.1-8.4s-1-6.5-3.1-8.4
		c-2.1-2-5.2-3-9.5-3h-12.1v22.9H382C386.3,52.3,389.4,51.3,391.5,49.3z"/>
	<path d="M496.8,63.8c3.2,4.1,4.8,8.8,4.8,14.1c0,7.6-2.7,13.7-8,18.1c-5.3,4.5-12.8,6.7-22.3,6.7h-42.5V11.5h41.1
		c9.3,0,16.5,2.1,21.8,6.4c5.2,4.2,7.9,10,7.9,17.3c0,5.4-1.4,9.8-4.2,13.4c-2.8,3.6-6.6,6-11.2,7.4
		C489.3,57.1,493.6,59.7,496.8,63.8z M451,48.4h14.6c3.6,0,6.4-0.8,8.4-2.4c1.9-1.6,2.9-4,2.9-7.1s-1-5.5-2.9-7.1s-4.7-2.5-8.4-2.5
		H451V48.4z M476,82.3c2-1.7,3.1-4.1,3.1-7.3s-1.1-5.7-3.2-7.5s-5-2.7-8.8-2.7H451v20.1h16.4C471.1,84.8,474,83.9,476,82.3z"/>
	<path d="M571.2,86.6h-34l-5.5,16.1h-23.3l33-91.2h25.7l33,91.2h-23.5L571.2,86.6z M565.5,69.5l-11.3-33.4L543,69.5H565.5z"/>
	<path d="M663.1,102.7l-30.7-40.3v40.3h-22.2V11.5h22.2v40l30.4-40H689l-35.3,44.7l36.6,46.5H663.1z"/>
</g>
<g>
	<path d="M72.5,469.2c-0.9,1.7-2.5,3.1-4.5,4.2s-4.5,1.6-7.5,1.6h-5.5v13h-8.8v-36.3h14.3c2.9,0,5.3,0.5,7.3,1.5s3.5,2.4,4.5,4.1
		c1,1.7,1.5,3.8,1.5,6.1C73.9,465.6,73.4,467.5,72.5,469.2z M63.7,466.8c0.8-0.8,1.3-1.9,1.3-3.3c0-1.5-0.4-2.6-1.3-3.3
		c-0.8-0.8-2.1-1.2-3.8-1.2h-4.8v9.1h4.8C61.6,468,62.9,467.6,63.7,466.8z"/>
	<path d="M91.2,460.3c1.5-0.9,3.3-1.4,5.2-1.4v9.3H94c-2.2,0-3.9,0.5-5,1.4c-1.1,0.9-1.7,2.6-1.7,5V488h-8.8v-28.8h8.8v4.8
		C88.4,462.5,89.6,461.2,91.2,460.3z"/>
	<path d="M101.3,454.9c-1-0.9-1.5-2.1-1.5-3.4c0-1.4,0.5-2.5,1.5-3.5c1-0.9,2.3-1.4,3.8-1.4s2.8,0.5,3.7,1.4c1,0.9,1.5,2.1,1.5,3.5
		c0,1.3-0.5,2.5-1.5,3.4c-1,0.9-2.3,1.4-3.7,1.4C103.5,456.3,102.2,455.8,101.3,454.9z M109.4,459.3v28.8h-8.8v-28.8H109.4z"/>
	<path d="M128.8,479.8l6.3-20.6h9.4l-10.2,28.8h-10.9L113,459.3h9.4L128.8,479.8z"/>
	<path d="M148.1,465.8c1.1-2.3,2.7-3.9,4.6-5.2c1.9-1.2,4.1-1.8,6.5-1.8c2.1,0,3.8,0.4,5.3,1.3c1.5,0.8,2.7,1.9,3.5,3.3v-4.1h8.8
		v28.8H168v-4.1c-0.9,1.3-2.1,2.4-3.6,3.3c-1.5,0.8-3.3,1.3-5.3,1.3c-2.3,0-4.5-0.6-6.4-1.9c-1.9-1.2-3.5-2.9-4.6-5.2
		c-1.1-2.3-1.7-4.9-1.7-7.9C146.4,470.6,147,468,148.1,465.8z M166.1,468.4c-1.2-1.3-2.7-1.9-4.5-1.9s-3.3,0.6-4.5,1.9
		c-1.2,1.3-1.9,3-1.9,5.2s0.6,3.9,1.9,5.3c1.2,1.3,2.7,1.9,4.5,1.9s3.3-0.7,4.5-1.9s1.9-3,1.9-5.2
		C168,471.5,167.4,469.8,166.1,468.4z"/>
	<path d="M199.3,480.6v7.5h-4.5c-3.2,0-5.7-0.8-7.5-2.3c-1.8-1.6-2.7-4.1-2.7-7.7v-11.4H181v-7.3h3.5v-7.1h8.8v7.1h5.8v7.3h-5.8
		v11.6c0,0.9,0.2,1.5,0.6,1.9s1.1,0.6,2.1,0.6h3.2V480.6z"/>
	<path d="M231.2,475.8h-20c0.1,1.8,0.7,3.1,1.7,4.1c1,0.9,2.3,1.4,3.7,1.4c2.2,0,3.7-0.9,4.6-2.8h9.4c-0.5,1.9-1.3,3.6-2.6,5.1
		c-1.3,1.5-2.9,2.7-4.7,3.6c-1.9,0.9-4,1.3-6.3,1.3c-2.8,0-5.3-0.6-7.5-1.8c-2.2-1.2-3.9-2.9-5.2-5.2c-1.3-2.3-1.9-4.9-1.9-7.9
		c0-3,0.6-5.6,1.9-7.9c1.2-2.3,2.9-3.9,5.1-5.2c2.2-1.2,4.7-1.8,7.6-1.8c2.8,0,5.3,0.6,7.5,1.7c2.2,1.2,3.9,2.9,5.1,5
		c1.2,2.2,1.9,4.7,1.9,7.6C231.3,474,231.3,474.9,231.2,475.8z M222.3,470.9c0-1.5-0.5-2.7-1.5-3.6c-1.1-0.9-2.3-1.3-3.9-1.3
		c-1.5,0-2.7,0.4-3.7,1.3c-1,0.9-1.7,2.1-1.9,3.7H222.3z"/>
	<path d="M273.9,472.6c1.3,1.7,1.9,3.5,1.9,5.6c0,3.1-1.1,5.5-3.2,7.2c-2.1,1.8-5.1,2.7-8.8,2.7h-16.9v-36.3h16.3
		c3.7,0,6.6,0.9,8.7,2.5c2.1,1.7,3.1,4,3.1,6.9c0,2.1-0.5,3.9-1.7,5.3s-2.6,2.4-4.5,2.9C271,470,272.7,471,273.9,472.6z
		 M255.8,466.5h5.8c1.5,0,2.5-0.3,3.3-0.9c0.8-0.7,1.1-1.6,1.1-2.8c0-1.3-0.4-2.2-1.1-2.9c-0.8-0.7-1.9-1-3.3-1h-5.8V466.5z
		 M265.7,479.9c0.8-0.7,1.2-1.7,1.2-2.9c0-1.3-0.4-2.3-1.3-3s-2-1.1-3.5-1.1h-6.4v8h6.5C263.8,480.9,264.9,480.6,265.7,479.9z"/>
	<path d="M281.6,454.9c-1-0.9-1.5-2.1-1.5-3.4c0-1.4,0.5-2.5,1.5-3.5c1-0.9,2.3-1.4,3.8-1.4c1.5,0,2.8,0.5,3.7,1.4
		c1,0.9,1.5,2.1,1.5,3.5c0,1.3-0.5,2.5-1.5,3.4c-1,0.9-2.3,1.4-3.7,1.4C283.9,456.3,282.6,455.8,281.6,454.9z M289.8,459.3v28.8
		h-8.8v-28.8H289.8z"/>
	<path d="M313.8,488.1L305,476v12.1h-8.8v-38.2h8.8V471l8.7-11.7h10.9l-12,14.4l12.1,14.4H313.8z"/>
	<path d="M355.1,475.8h-20c0.1,1.8,0.7,3.1,1.7,4.1c1,0.9,2.3,1.4,3.7,1.4c2.2,0,3.7-0.9,4.6-2.8h9.4c-0.5,1.9-1.3,3.6-2.6,5.1
		c-1.3,1.5-2.9,2.7-4.7,3.6c-1.9,0.9-4,1.3-6.3,1.3c-2.8,0-5.3-0.6-7.5-1.8s-3.9-2.9-5.2-5.2c-1.3-2.3-1.9-4.9-1.9-7.9
		c0-3,0.6-5.6,1.9-7.9c1.3-2.3,2.9-3.9,5.1-5.2c2.2-1.2,4.7-1.8,7.6-1.8c2.8,0,5.3,0.6,7.5,1.7c2.2,1.2,3.9,2.9,5.1,5
		c1.2,2.2,1.9,4.7,1.9,7.6C355.3,474,355.2,474.9,355.1,475.8z M346.3,470.9c0-1.5-0.5-2.7-1.5-3.6c-1.1-0.9-2.3-1.3-3.9-1.3
		c-1.5,0-2.7,0.4-3.7,1.3c-1,0.9-1.7,2.1-1.9,3.7H346.3z"/>
	<path d="M372.6,460.3c1.5-0.9,3.3-1.4,5.2-1.4v9.3h-2.4c-2.2,0-3.9,0.5-5,1.4c-1.1,0.9-1.7,2.6-1.7,5V488h-8.8v-28.8h8.8v4.8
		C369.8,462.5,371.1,461.2,372.6,460.3z"/>
	<path d="M387.1,487.2c-1.9-0.9-3.5-2.1-4.7-3.5c-1.1-1.5-1.8-3.2-1.9-5.1h8.7c0.1,1,0.6,1.8,1.4,2.4c0.8,0.6,1.9,0.9,3.1,0.9
		c1.1,0,1.9-0.2,2.5-0.7c0.6-0.4,0.9-1,0.9-1.7c0-0.8-0.4-1.5-1.3-1.9c-0.9-0.4-2.3-0.9-4.2-1.3c-2.1-0.5-3.8-1-5.2-1.5
		s-2.6-1.4-3.6-2.5s-1.5-2.7-1.5-4.7c0-1.7,0.5-3.1,1.4-4.5s2.3-2.5,4.1-3.3c1.8-0.8,3.9-1.2,6.3-1.2c3.6,0,6.5,0.9,8.5,2.7
		c2.1,1.8,3.3,4.2,3.6,7.1H397c-0.1-1-0.6-1.8-1.3-2.4c-0.7-0.6-1.7-0.9-2.9-0.9c-1.1,0-1.8,0.2-2.4,0.6c-0.5,0.4-0.8,0.9-0.8,1.6
		c0,0.8,0.5,1.5,1.3,1.9s2.3,0.8,4.1,1.3c2.1,0.5,3.9,1.1,5.2,1.6c1.3,0.5,2.5,1.4,3.5,2.6c1,1.2,1.5,2.8,1.6,4.8
		c0,1.7-0.5,3.2-1.4,4.5c-0.9,1.3-2.3,2.4-4.1,3.1c-1.8,0.7-3.9,1.1-6.2,1.1C391.2,488.5,389,488.1,387.1,487.2z"/>
	<path d="M443.6,481.2H430l-2.2,6.4h-9.2l13.1-36.3H442l13.1,36.3h-9.3L443.6,481.2z M441.4,474.4l-4.5-13.2l-4.5,13.2H441.4z"/>
	<path d="M464.1,486.7c-1.9-0.9-3.5-2.1-4.7-3.5c-1.1-1.5-1.8-3.2-1.9-5.1h8.7c0.1,1,0.6,1.8,1.4,2.4c0.8,0.6,1.9,0.9,3.1,0.9
		c1.1,0,1.9-0.2,2.5-0.7c0.6-0.4,0.9-1,0.9-1.7c0-0.8-0.4-1.5-1.3-1.9c-0.9-0.4-2.3-0.9-4.2-1.3c-2.1-0.5-3.8-1-5.2-1.5
		c-1.4-0.5-2.6-1.4-3.6-2.5c-1-1.1-1.5-2.7-1.5-4.7c0-1.7,0.5-3.1,1.4-4.5c0.9-1.3,2.3-2.5,4.1-3.3c1.8-0.8,3.9-1.2,6.3-1.2
		c3.6,0,6.5,0.9,8.5,2.7c2.1,1.8,3.3,4.2,3.6,7.1h-8.2c-0.1-1-0.6-1.8-1.3-2.4c-0.7-0.6-1.7-0.9-2.9-0.9c-1.1,0-1.8,0.2-2.4,0.6
		c-0.5,0.4-0.8,0.9-0.8,1.6c0,0.8,0.5,1.5,1.3,1.9c0.9,0.4,2.3,0.8,4.1,1.3c2.1,0.5,3.9,1.1,5.2,1.6c1.3,0.5,2.5,1.4,3.5,2.6
		c1,1.2,1.5,2.8,1.6,4.8c0,1.7-0.5,3.2-1.4,4.5c-0.9,1.3-2.3,2.4-4.1,3.1c-1.8,0.7-3.9,1.1-6.2,1.1C468.3,488,466,487.6,464.1,486.7
		z"/>
	<path d="M492.9,486.7c-1.9-0.9-3.5-2.1-4.7-3.5c-1.1-1.5-1.8-3.2-1.9-5.1h8.7c0.1,1,0.6,1.8,1.4,2.4s1.9,0.9,3.1,0.9
		c1.1,0,1.9-0.2,2.5-0.7c0.6-0.4,0.9-1,0.9-1.7c0-0.8-0.4-1.5-1.3-1.9c-0.9-0.4-2.3-0.9-4.2-1.3c-2.1-0.5-3.8-1-5.2-1.5
		s-2.6-1.4-3.6-2.5c-1-1.1-1.5-2.7-1.5-4.7c0-1.7,0.5-3.1,1.4-4.5c0.9-1.3,2.3-2.5,4.1-3.3s3.9-1.2,6.3-1.2c3.6,0,6.5,0.9,8.5,2.7
		c2.1,1.8,3.3,4.2,3.6,7.1h-8.2c-0.1-1-0.6-1.8-1.3-2.4c-0.7-0.6-1.7-0.9-2.9-0.9c-1.1,0-1.8,0.2-2.4,0.6c-0.5,0.4-0.8,0.9-0.8,1.6
		c0,0.8,0.5,1.5,1.3,1.9c0.9,0.4,2.3,0.8,4.1,1.3c2.1,0.5,3.9,1.1,5.2,1.6c1.3,0.5,2.5,1.4,3.5,2.6c1,1.2,1.5,2.8,1.6,4.8
		c0,1.7-0.5,3.2-1.4,4.5c-0.9,1.3-2.3,2.4-4.1,3.1c-1.8,0.7-3.9,1.1-6.2,1.1C497.1,488,494.9,487.6,492.9,486.7z"/>
	<path d="M522.2,486.2c-2.3-1.2-4.1-2.9-5.3-5.2c-1.3-2.3-1.9-4.9-1.9-7.9c0-2.9,0.7-5.6,1.9-7.9c1.3-2.3,3.1-4,5.4-5.2
		c2.3-1.2,4.8-1.8,7.7-1.8c2.8,0,5.4,0.6,7.7,1.8c2.3,1.2,4.1,2.9,5.4,5.2c1.3,2.3,1.9,4.9,1.9,7.9c0,3-0.7,5.6-2,7.9
		c-1.3,2.3-3.1,4-5.4,5.2s-4.9,1.8-7.7,1.8C527,488,524.5,487.4,522.2,486.2z M534.2,478.5c1.2-1.3,1.8-3,1.8-5.3
		c0-2.3-0.6-4.1-1.7-5.3c-1.1-1.3-2.6-1.9-4.3-1.9c-1.7,0-3.1,0.6-4.3,1.9c-1.1,1.2-1.7,3-1.7,5.3c0,2.3,0.5,4.1,1.7,5.3
		c1.1,1.3,2.5,1.9,4.2,1.9S533,479.8,534.2,478.5z"/>
	<path d="M549.7,465.3c1.2-2.3,2.9-3.9,5.1-5.2c2.2-1.2,4.7-1.8,7.5-1.8c3.6,0,6.7,0.9,9,2.9c2.4,1.9,4,4.6,4.8,8h-9.4
		c-0.8-2.2-2.3-3.3-4.6-3.3c-1.6,0-2.9,0.6-3.9,1.9c-0.9,1.3-1.5,3.1-1.5,5.4c0,2.3,0.5,4.1,1.5,5.4c0.9,1.3,2.3,1.9,3.9,1.9
		c2.3,0,3.8-1.1,4.6-3.3h9.4c-0.7,3.4-2.3,6.1-4.8,8c-2.5,1.9-5.5,2.9-9,2.9c-2.8,0-5.3-0.6-7.5-1.8c-2.2-1.2-3.9-2.9-5.1-5.2
		c-1.2-2.3-1.9-4.9-1.9-7.9S548.5,467.6,549.7,465.3z"/>
	<path d="M581.5,454.4c-1-0.9-1.5-2.1-1.5-3.4c0-1.4,0.5-2.5,1.5-3.5c1-0.9,2.3-1.4,3.8-1.4c1.5,0,2.8,0.5,3.7,1.4
		c1,0.9,1.5,2.1,1.5,3.5c0,1.3-0.5,2.5-1.5,3.4c-1,0.9-2.3,1.4-3.7,1.4C583.7,455.8,582.5,455.4,581.5,454.4z M589.7,458.8v28.8
		h-8.8v-28.8H589.7z"/>
	<path d="M596,465.3c1.1-2.3,2.7-3.9,4.6-5.2c1.9-1.2,4.1-1.8,6.5-1.8c2.1,0,3.8,0.4,5.3,1.3c1.5,0.8,2.7,1.9,3.5,3.3v-4.1h8.8v28.8
		h-8.8v-4.1c-0.9,1.3-2.1,2.4-3.6,3.3c-1.5,0.8-3.3,1.3-5.3,1.3c-2.3,0-4.5-0.6-6.4-1.9c-1.9-1.2-3.5-2.9-4.6-5.2
		c-1.1-2.3-1.7-4.9-1.7-7.9C594.3,470.2,594.9,467.6,596,465.3z M614.1,468c-1.2-1.3-2.7-1.9-4.5-1.9s-3.3,0.6-4.5,1.9
		c-1.2,1.3-1.9,3-1.9,5.2s0.6,3.9,1.9,5.3c1.2,1.3,2.7,1.9,4.5,1.9s3.3-0.7,4.5-1.9c1.2-1.3,1.9-3,1.9-5.2
		C615.9,471,615.3,469.3,614.1,468z"/>
	<path d="M647.2,480.1v7.5h-4.5c-3.2,0-5.7-0.8-7.5-2.3c-1.8-1.6-2.7-4.1-2.7-7.7v-11.4H629v-7.3h3.5v-7.1h8.8v7.1h5.8v7.3h-5.8
		v11.6c0,0.9,0.2,1.5,0.6,1.9c0.4,0.4,1.1,0.6,2.1,0.6h3.2V480.1z"/>
	<path d="M652.8,454.4c-1-0.9-1.5-2.1-1.5-3.4c0-1.4,0.5-2.5,1.5-3.5c1-0.9,2.3-1.4,3.8-1.4s2.8,0.5,3.7,1.4c1,0.9,1.5,2.1,1.5,3.5
		c0,1.3-0.5,2.5-1.5,3.4c-1,0.9-2.3,1.4-3.7,1.4C655,455.8,653.8,455.4,652.8,454.4z M660.9,458.8v28.8h-8.8v-28.8H660.9z"/>
	<path d="M672.8,486.2c-2.3-1.2-4.1-2.9-5.3-5.2c-1.3-2.3-1.9-4.9-1.9-7.9c0-2.9,0.7-5.6,1.9-7.9c1.3-2.3,3.1-4,5.4-5.2
		s4.8-1.8,7.7-1.8c2.8,0,5.4,0.6,7.7,1.8s4.1,2.9,5.4,5.2c1.3,2.3,1.9,4.9,1.9,7.9c0,3-0.7,5.6-2,7.9c-1.3,2.3-3.1,4-5.4,5.2
		s-4.9,1.8-7.7,1.8C677.6,488,675.1,487.4,672.8,486.2z M684.8,478.5c1.2-1.3,1.8-3,1.8-5.3c0-2.3-0.6-4.1-1.7-5.3
		c-1.1-1.3-2.6-1.9-4.3-1.9c-1.7,0-3.1,0.6-4.3,1.9c-1.1,1.2-1.7,3-1.7,5.3c0,2.3,0.5,4.1,1.7,5.3c1.1,1.3,2.5,1.9,4.2,1.9
		C682.2,480.4,683.6,479.8,684.8,478.5z"/>
	<path d="M725.9,461.7c2,2.2,3,5.2,3,9v16.8h-8.8v-15.6c0-1.9-0.5-3.4-1.5-4.5c-1-1.1-2.3-1.6-4.1-1.6c-1.7,0-3.1,0.5-4.1,1.6
		c-1,1.1-1.5,2.6-1.5,4.5v15.6h-8.8v-28.8h8.8v3.8c0.9-1.3,2.1-2.3,3.6-3c1.5-0.7,3.2-1.1,5.1-1.1
		C721.2,458.5,723.9,459.6,725.9,461.7z"/>
	<path d="M753.8,485.6c-2.9-1.6-5.1-3.8-6.8-6.7s-2.5-6.1-2.5-9.6s0.9-6.7,2.5-9.6c1.7-2.8,3.9-5.1,6.8-6.6c2.9-1.6,6-2.4,9.4-2.4
		s6.5,0.8,9.4,2.4c2.9,1.6,5.1,3.8,6.7,6.6c1.7,2.8,2.5,6,2.5,9.6c0,3.5-0.8,6.7-2.5,9.6s-3.9,5.1-6.7,6.7c-2.8,1.6-5.9,2.4-9.3,2.4
		S756.6,487.2,753.8,485.6z M770.1,477c1.7-1.9,2.6-4.5,2.6-7.7s-0.9-5.8-2.6-7.7c-1.7-1.9-4.1-2.9-6.9-2.9c-2.9,0-5.3,0.9-7,2.9
		c-1.7,1.9-2.6,4.5-2.6,7.7c0,3.2,0.9,5.8,2.6,7.7c1.7,1.9,4.1,2.9,7,2.9C766,479.9,768.3,478.9,770.1,477z"/>
	<path d="M801.1,466.1h-4.7v21.5h-8.8v-21.5h-3.2v-7.3h3.2V458c0-3.5,1-6.3,3.1-8.1c2.1-1.9,5-2.8,8.9-2.8c0.7,0,1.1,0,1.5,0.1v7.5
		c-1.7-0.1-2.9,0.1-3.6,0.7c-0.7,0.6-1.1,1.7-1.1,3.1v0.3h4.7L801.1,466.1L801.1,466.1z"/>
	<path d="M837.1,487.6l-12.2-16v16h-8.8v-36.3h8.8v15.9l12.1-15.9h10.4l-14,17.8l14.6,18.5L837.1,487.6L837.1,487.6z"/>
	<path d="M879.1,475.3h-20c0.1,1.8,0.7,3.1,1.7,4.1c1,0.9,2.3,1.4,3.7,1.4c2.2,0,3.7-0.9,4.6-2.8h9.4c-0.5,1.9-1.3,3.6-2.6,5.1
		s-2.9,2.7-4.7,3.6c-1.9,0.9-4,1.3-6.3,1.3c-2.8,0-5.3-0.6-7.5-1.8c-2.2-1.2-3.9-2.9-5.2-5.2c-1.3-2.3-1.9-4.9-1.9-7.9
		c0-3,0.6-5.6,1.9-7.9c1.2-2.3,2.9-3.9,5.1-5.2c2.2-1.2,4.7-1.8,7.6-1.8c2.8,0,5.3,0.6,7.5,1.7c2.2,1.2,3.9,2.9,5.1,5
		c1.2,2.2,1.9,4.7,1.9,7.6C879.3,473.5,879.3,474.4,879.1,475.3z M870.3,470.4c0-1.5-0.5-2.7-1.5-3.6c-1.1-0.9-2.3-1.3-3.9-1.3
		c-1.5,0-2.7,0.4-3.7,1.3c-1,0.9-1.7,2.1-1.9,3.7H870.3z"/>
	<path d="M909.6,461.7c2,2.2,3,5.2,3,9v16.8h-8.8v-15.6c0-1.9-0.5-3.4-1.5-4.5c-1-1.1-2.3-1.6-4.1-1.6c-1.7,0-3.1,0.5-4.1,1.6
		c-1,1.1-1.5,2.6-1.5,4.5v15.6h-8.8v-28.8h8.8v3.8c0.9-1.3,2.1-2.3,3.6-3c1.5-0.7,3.2-1.1,5.1-1.1
		C904.9,458.5,907.5,459.6,909.6,461.7z"/>
	<path d="M948.2,458.8l-18.1,42.5h-9.5l6.6-14.6l-11.7-27.8h9.8l6.7,18l6.6-18H948.2z"/>
	<path d="M951.3,465.3c1.1-2.3,2.7-3.9,4.6-5.2c1.9-1.2,4.1-1.8,6.5-1.8c2.1,0,3.8,0.4,5.3,1.3c1.5,0.8,2.7,1.9,3.5,3.3v-4.1h8.8
		v28.8h-8.8v-4.1c-0.9,1.3-2.1,2.4-3.6,3.3c-1.5,0.8-3.3,1.3-5.3,1.3c-2.3,0-4.5-0.6-6.4-1.9c-1.9-1.2-3.5-2.9-4.6-5.2
		c-1.1-2.3-1.7-4.9-1.7-7.9C949.6,470.2,950.2,467.6,951.3,465.3z M969.4,468c-1.2-1.3-2.7-1.9-4.5-1.9c-1.7,0-3.3,0.6-4.5,1.9
		c-1.2,1.3-1.9,3-1.9,5.2s0.6,3.9,1.9,5.3c1.2,1.3,2.7,1.9,4.5,1.9c1.7,0,3.3-0.7,4.5-1.9c1.2-1.3,1.9-3,1.9-5.2
		C971.2,471,970.6,469.3,969.4,468z"/>
</g>
</svg>
